<svg id="Layer_1" data-name="Layer 1" xmlns="http://www.w3.org/2000/svg" viewBox="0 0 92.5 95.3"><defs><style>.cls-1{fill:#e4dec0;stroke:#226d28;stroke-miterlimit:10;stroke-width:1px;}.cls-2{fill:#226d28;}</style></defs><title>roundlogo</title><ellipse class="cls-1" cx="46.2" cy="47.7" rx="46" ry="47.5"/><path class="cls-2" d="M7.3,48.4c0-6.1,0-9.1,0-15.2a42,42,0,0,1,2.7-5,4.8,4.8,0,0,1,2.2.3l1.2,13.9,4.4-1.5c1.1,1.2,1.7,1.9,2.9,3.4l.6,6.4H9.8A21.4,21.4,0,0,0,7.3,48.4Zm10.8-2-.5-4.8c-2.8.8-4.2,1.3-6.9,2.3L9.8,29a41.5,41.5,0,0,0-2.3,4V48C11.8,47.3,13.8,46.9,18.1,46.3Zm-6.9,1.8h0Zm-.8-19.2h-.2v.3Zm.1,1v-.4l-.2.3v.4Zm.1,1v-.5l-.3.4v.5ZM13,42.5l-.8-9.4-.3.3v-.5l.3-.3V32l-.3.3v-.5l-.4.4v-.5L11,32v-.5l-.3.4v-.5l-.3.3v.5l.3-.3v.5l-.3.3v.6l.3-.3v.4l-.3.3v.6l.3-.3v.4l-.3.3.6,8.6Zm-2.4-7.2.2-.2v.3l-.2.2Zm.1,1,.2-.2v.3l-.2.2Zm.1,1h.1v.2h-.1Zm.9,11.3h0Zm-.8-10.3h0Zm.1-7.3v-.5l-.3.4v.5Zm-.2,1.4L11,32v.5l-.3.3Zm.1-2.5v-.4l-.3.4v.4Zm-.1,3.5.3-.3v.4l-.3.3Zm0-4.5h-.3v.3Zm.1,5.5.3-.2v.4l-.3.2Zm.1,1,.2-.2v.3l-.2.2Zm.1,1,.2-.2v.3h-.2Zm.1,1h.1v.2h-.1ZM12.1,48v-.2h-.2V48Zm0,1h0Zm-.8-10.5h0Zm.1-7.4v-.5L11,31v.5Zm-.2,1.4.3-.3v.5l-.3.3Zm.1-2.5v-.4l-.3.3v.4Zm0,3.5.3-.3v.4l-.3.3ZM11.1,29h-.3v.3Zm.2,5.6.2-.2v.4l-.3.2Zm.1,1,.2-.2v.3l-.2.2Zm.1,1h.2v.3h-.2Zm.1,1h.1v.2h-.1Zm.1,1.1h0Zm.9,9.7v-.2h-.1v.2Zm.1,1.1h0Zm-.9-18.3v-.5l-.3.4v.5Zm-.2,1.4.3-.3v.5l-.3.3Zm.1,1,.3-.3v.4l-.3.3Zm0-3.6v-.4l-.3.3v.4Zm.1,4.6.3-.2V35l-.3.2Zm-.2-5.7h-.3v.4Zm.3,6.8.2-.2V36l-.2.2Zm.1,1.1h.2v.3h-.2ZM12,38h.1v.2H12Zm1,9.9v-.2h-.2v.2Zm-.9-8.9h0ZM13,49v-.2h-.2V49Zm.1,1.1v-.2h0Zm-.9-18.6v-.5l-.3.4v.5ZM12,33.9l.3-.3v.4l-.3.3Zm0-3.6v-.4l-.3.3v.4Zm.1,4.7.3-.2v.4l-.3.2Zm-.2-5.8h-.3v.4Zm.3,6.9.2-.2v.3l-.2.2Zm.1,1.1h.2v.3h-.2Zm.1,1.1h.1v.2h-.1Zm1,10.1v-.2h-.2v.2Zm-.9-9h.1v.2h-.1Zm1,10.1v-.2h-.1v.2Zm.4-1.7v-.3h-.2v.3Zm.1,1.1v-.2h-.2v.2ZM14,50v-.2h-.2V50Zm.3-1.7V48H14v.3Zm.1,1.1v-.3h-.2v.2Zm.3-1.7v-.3h-.3v.3Zm.1,1.2v-.3h-.2v.3Zm.1,1.1v-.3h-.2V50Zm.3-1.7v-.4h-.3v.4Zm.1,1.2v-.3H15v.3Zm.3-1.8v-.4h-.3v.4Zm.1,1.2v-.4h-.3v.4Zm.1,1.2v-.3h-.2V50Zm.3-1.8v-.5h-.3v.5Zm.1,1.2V49h-.3v.4Zm.4-.6v-.5h-.3v.5Zm-.1-1.3v-.4h-.3v.4Zm.2,2.4v-.3h-.3V50Zm.4-.6V49h-.3v.5ZM17,48.2v-.5h-.3v.5Zm.4-.7v-.4H17v.4Zm.2,2.5v-.4h-.3V50Zm-.1-1.2v-.5h-.3v.5Zm.4-.7v-.5h-.3v.5Zm.1,1.3v-.5h-.3v.5Zm.2-2V47h-.3v.4Zm.1,1.3v-.5H18v.5Zm.1,1.2v-.4h-.3V50Zm.2-1.9v-.5h-.3v.5Zm.1,1.4v-.5h-.3v.5Zm1.5-4.8-2.2-2.7.5,5,2.3,3Zm-1.1,4.1v-.5h-.3v.5Zm.1,1.3v-.4H19V50Zm.4-.6v-.5h-.3v.5Zm.5.6v-.4h-.3v.4Z" transform="translate(-4 -2.7)"/><path class="cls-2" d="M21.9,46.1l-3-30.4a40.3,40.3,0,0,1,4.3-3.3,42,42,0,0,1,3.3,3.3l3,34.9H25C23.8,48.7,23.1,47.8,21.9,46.1Zm4-1L23,13.5a40.5,40.5,0,0,0-3.5,2.7l2.9,29.4ZM24,15.7V15l-.4.2V16Zm.2,1.7v-.8l-.4.2v.8Zm2.4,5.1-.4.2v-.8l.4-.2v-.9L26,21v-.9l-.5.2v-.9l-.5.2v-.9l-.5.3v-.8l-.4.2v.9l.4-.2V20l-.4.2v.9l.4-.2v.7l-.4.2,2.2,24.1L29,49.8ZM23.8,14l-.3-.3v.5Zm.5,8.8.3-.2v.6l-.3.2Zm.2,1.7h.3v.5h-.3Zm.2,1.7h.2v.4h-.2Zm.2,1.7h.2v.3h-.2Zm.2,1.7h.1v.2h-.1Zm-.3-11.6v-.8l-.4.3v.8Zm-.3,2,.4-.2v.8l-.4.2Zm.1-3.7v-.7l-.4.2v.7Zm.1,5.4.4-.2v.7l-.4.2Zm-.3-7.2-.4-.3v.5Zm.5,8.9.3-.2v.6l-.3.2Zm.2,1.7h.3v.5h-.3Zm.2,1.7h.2v.4h-.2Zm.2,1.7h.2v.3h-.2Zm.2,1.7h.1v.2h-.1Zm-.3-11.7v-.8l-.4.2v.8Zm-.3,2,.4-.2v.8l-.4.2Zm.1-3.7v-.7l-.4.2v.7Zm.1,5.5.4-.2v.7l-.4.2ZM25,15.1l-.4-.4v.5Zm.5,9h.3v.6h-.3Zm.2,1.7h.3v.5h-.3Zm.2,1.7H26v.4h-.2Zm.2,1.7h.2v.3H26Zm.2,1.8h.1v.2h-.1Zm-.3-11.8v-.8l-.4.2v.8Zm-.3,2,.4-.2v.8l-.4.2Zm.2,1.7.4-.2v.7l-.4.2Zm-.1-5.5v-.7l-.4.2v.7Zm.3,7.2h.3v.6H26Zm-.4-9h0l-.4-.4h0v.6Zm.6,10.7h.3v.5h-.3Zm.2,1.8h.2v.4h-.2Zm.2,1.7h.2v.3h-.2Zm.2,1.7h.1v.2h-.1Zm-.3-11.8v-.8l-.4.2v.8Zm-.1,3.7.4-.2v.7l-.4.2Zm-.1-5.5v-.7l-.4.2v.7Zm.2,7.3h.3v.6h-.3Zm-.4-9.1h0l-.3-.4h0v.6Zm.6,10.8H27v.5h-.3Zm.2,1.8h.2v.4h-.2Zm.2,1.8h.2V31h-.2Zm.2,1.8h.1v.2h-.1Z" transform="translate(-4 -2.7)"/><path class="cls-2" d="M34.3,45,32.7,21.3l-2.3.7c-1.3-1.8-2-2.7-3.3-4.3l-.7-8A42.2,42.2,0,0,1,42.4,4.2l3.3,5.6.2,9.2-5.3.6,1.2,31H37.3Zm4.1-1.1L36.8,13.7a48.9,48.9,0,0,1,5.5-1.1l-.2-7.3a42.9,42.9,0,0,0-15,4.9l.5,6.5a46.4,46.4,0,0,1,5.2-2l1.9,29.3ZM28.7,17.8v-.6h-.4V18Zm.6.7v-.7h-.4v.7Zm.6.8v-.7h-.4v.7Zm-.2-1.9v-.5h-.3v.5Zm.7,2.7v-.7H30v.7Zm-.2-1.9v-.6h-.3v.6Zm.7,2.5v-.6h-.4v.5Zm-.2-1.8v-.6h-.3V19ZM30.7,17v-.5h-.3v.5Zm.7,2.7v-.6h-.3v.6Zm-.2-2v-.5H31v.5Zm.7,2.6v-.5h-.3v.5Zm-.2-1.9V18h-.3v.5Zm-.2-2v-.4h-.2v.4Zm.7,2.8v-.5h-.3v.5Zm-.2-2V17H32v.4Zm5.4-1.9v-.6l-.2-.3v1Zm2.9,15h0v-.3h0V28.7h-.1v-.4h.1V26.8h-.1v-.6h.1V24.8h-.1v-.7h.1V22.9h-.2v-.8h.2V21H40v-1h.2v-.9h-.2V20h-.5v-.9h.5v-.7l-.2-.3h-.3v.9h-.5v-.9h.5v-.7l-.2-.3h-.3v.9h-.5v-1h.5v-.6l-.2-.3h-.3v.9h-.5v-.9h.5v-.7l-.2-.3h-.3v.9h-.2v1.1h.2v.8h-.2v1.2h.1v.7h-.1v1.3h.1v.6h-.1v1.5h.1v.4h-.1v1.6h0V26h0l.9,18.9,2.4,4.5ZM37.8,18.5h.4v.8h-.4Zm.1,2h.3v.7H38Zm.1,2h.3v.5h-.3Zm.1,2h.2V25h-.2Zm.1,2h.1v.3h-.1Zm-.2-11.8v-.3H38v.3Zm.2,4.6h.4v.8h-.4Zm.1,2h.4v.7h-.4Zm.1,2h.3V24h-.3Zm.1,2H39v.4h-.2Zm.1,2H39v.3h-.1Zm-.2-11.9v-.3h-.2v.3Zm.2,4.6h.4V21H39Zm.1,2h.4V23h-.4Zm.1,2h.3v.6h-.3Zm.1,2h.2v.4h-.2Zm.1,2h.1v.2h-.1Zm-.2-13.8v-.4H39v.4Zm.1,2v-.3h-.2v.3Zm.2,4.6h.4V22h-.4Zm.1,2.1H40v.7h-.3Zm.1,2.1H40v.5h-.3Zm.1,2h.2v.4h-.2Zm.1,2h.1v.3H40Zm-.1-13.8v-.4h-.2v.4Zm.1,2v-.3h-.2v.3Zm.5-3.1V14h-.3v.5Zm0,2V16h-.2v.4Zm0,2v-.3h-.2v.3Zm.5-3.1v-.6h-.3v.6Zm0,2V17h-.2v.4Zm.5-3.1v-.6h-.3v.6Zm.1,2v-.6h-.3v.6Zm0,2v-.5h-.2v.5Zm.5-3.1v-.7h-.4v.7Zm0,2v-.6h-.3v.6Zm.5-3.1v-.6h-.4v.6Zm0,2v-.6h-.3v.6Zm0,2v-.5h-.3v.5Zm.5-3v-.8h-.4v.8Zm0,2v-.7h-.3v.7Zm2.1-7L42.7,5.9l.2,7.7L45.4,18Zm-1.5,5.9v-.8h-.4v.8Zm0,1.9v-.6h-.3v.6Zm.5-.9v-.8h-.4v.8Zm.5.8v-.6h-.4V18Z" transform="translate(-4 -2.7)"/><path class="cls-2" d="M51.8,44.6V18.8H49.5l-3.1-5.9-.2-9.2A43,43,0,0,1,62.9,4.9l2.8,6.6-.5,8.8L60,19.4,59,50.6H54.5Zm4.1-.7.7-31.6a48.8,48.8,0,0,1,5.5.8l.3-7.3A43.7,43.7,0,0,0,46.8,4.6v7.5a49.4,49.4,0,0,1,5.6-.1l-.2,31.8ZM48.1,13.7v-.7h-.4v.7Zm.5,1V14h-.4v.8Zm.6,1.1V15h-.4v.8Zm0-2.2V13h-.3v.6Zm.6,3.2v-.8h-.4v.8Zm0-2.1V14h-.4v.7Zm.6,3v-.6h-.4v.6Zm0-2v-.7h-.3v.7Zm0-2.2V13h-.3v.5Zm.6,3.2v-.7h-.4v.7Zm0-2.2v-.6h-.3v.6Zm.6,3.1v-.5h-.3v.5Zm0-2.1v-.6H51v.6Zm0-2.2V13H51v.5Zm.6,3.2v-.6h-.3v.6Zm0-2.2v-.5h-.2v.5Zm5.6-.2v-.7l-.2-.4v1.1Zm1.8,16.1h0v-.3h0V28.6h-.1v-.4h.1V26.6h-.1V26h.1V24.6h-.1v-.7h.1V22.7h-.2v-.8h.2V20.8h-.2v-1h.2v-1h-.2v.9h-.5v-1h.5v-1h-.3v.9h-.5v-1h.5V17l-.2-.3h-.3v1h-.5v-1h.5v-.7l-.2-.3h-.3v.9h-.5v-1h.5v-.7l-.2-.3h-.3v.9h-.2v1.2h.2v.8h-.2v1.2h.1v.7H57v1.4h.1v.6H57v1.5H57v.4h-.1V25h0v.3h0l-.5,19.7,2.1,4.7ZM57.3,17.5h.4v.9h-.4Zm0,2.1h.3v.7h-.3Zm0,2.1h.3v.5h-.3Zm0,2.1h.2v.4h-.2Zm0,2.1h.1v.3h-.1ZM58,13.9v-.3h-.2v.3Zm-.1,4.8h.4v.8h-.4Zm0,2.1h.4v.7h-.4Zm0,2.1h.3v.5h-.3Zm0,2.1H58v.4h-.2Zm0,2.1h.1v.3h-.1ZM58.5,15v-.3h-.2v.3Zm-.1,4.8h.4v.8h-.4Zm0,2.1h.4v.7h-.4Zm0,2.1h.3v.6h-.3Zm0,2.1h.2v.4h-.2Zm0,2.1h.1v.3h-.1Zm.8-14.1v-.5h-.2V14Zm-.1,2v-.3h-.2V16Zm-.2,4.7h.4v.9h-.4Zm0,2.1h.3v.7h-.3Zm0,2.1H59v.5h-.3Zm0,2.1h.2v.4h-.2Zm0,2.1h.1v.3h-.1Zm.9-14v-.5h-.2v.5Zm-.1,2v-.3h-.2v.3Zm.7-2.9v-.5h-.3v.5Zm-.1,2v-.5h-.2v.5Zm-.1,2v-.3h-.2v.3Zm.7-2.9v-.6h-.3v.6Zm-.1,2v-.4h-.2v.4Zm.7-2.9v-.6h-.3v.6Zm-.1,2v-.6h-.3v.6Zm-.1,2V18h-.2v.5Zm.7-2.9v-.7h-.3v.7Zm-.1,2V17h-.3v.6Zm.7-2.9v-.6h-.4v.6Zm-.1,2v-.6h-.3v.6Zm-.1,2v-.5h-.3v.5Zm.7-2.8v-.8h-.4v.8Zm-.1,2v-.7h-.3v.7Zm2.5-6.1L63,6.6l-.3,7.6,2.1,5ZM63.3,17v-.8h-.4v.8Zm-.1,1.9v-.6h-.3v.6Zm.6-.8v-.7h-.4V18Zm.5,1v-.6h-.4V19Z" transform="translate(-4 -2.7)"/><path class="cls-2" d="M64.4,44.9,66.7,6.3a42,42,0,0,1,4.9,2l2.6,6.8L72.4,37.3l5,1.1,2.2,5.2-.7,7H66.8Zm12,.3.6-6c-3.1-.7-4.7-1-7.9-1.5L71.2,9.1l-4-1.6L64.9,44.3C69.6,44.5,71.9,44.7,76.4,45.2Zm-7.7.6v-.3h-.1v.3ZM72,10.8h0l-.3-.7h0v.6Zm-.1,1.9v-.7l-.4-.2v.7Zm-.1,1.9v-.8l-.4-.2v.8Zm.2,22.7,1.3-15.5-.4-.2v-.8l.4.2V20l-.5-.2v-.9l-.5-.2v-.9l-.5-.2v-.9l-.5-.2v-.9l-.4-.2v1l.4.2v.8l-.4-.2v1h.4v.8H71v1.1h.4v.7h-.4L69.6,36.9ZM70.8,22h.3v.6h-.3Zm-.1,1.9h.2v.5h-.2Zm-.1,1.9h.2v.4h-.2Zm-1.4,21v-.3H69v.3Zm1.3-19.1h.1V28h-.1Zm1.7-12v-.8l-.5-.2v.9Zm-.6,1.7.5.2v.8l-.5-.2Zm.7-3.6v-.7l-.4-.2v.7Zm-.8,5.5.4.2v.7l-.4-.2Zm1-7.4h0l-.3-.7h-.1v.6Zm-1.1,9.3h.4V22h-.4Zm-.1,1.9h.3v.6h-.3ZM71.1,25h.2v.5H71ZM71,26.9h.2v.4h-.2Zm-1.3,19v-.3h-.2v.3Zm-.2,1.8v-.3h-.1v.3Zm1.3-19H71V29h-.1Zm1.7-11.9V16l-.5-.2v.8ZM72,18.5l.5.2v.8l-.5-.2Zm.7-3.6v-.7l-.4-.2v.7Zm-.8,5.4h.4v.8h-.4Zm1-7.3h0l-.2-.6h-.1v.6Zm-1.1,9.2h.3v.6h-.3Zm-.1,1.9h.3v.6h-.3ZM71.5,26h.2v.5h-.2Zm-.1,1.9h.2v.4h-.2Zm-.1,1.9h.1v.3h-.1ZM70.1,46.9v-.3h-.2v.3Zm-.2,1.9v-.3h-.1v.3ZM73,18v-.8l-.5-.2v.8Zm-.6,1.7.5.2v.8l-.5-.2Zm-.1,1.8.4.2v.8h-.4Zm.9-5.4v-.7l-.4-.2v.7Zm-1,7.3h.4v.7h-.4Zm1.1-9.1v-.2l-.2-.6h-.1v.6ZM72,25.2h.3v.6H72Zm-.1,1.9h.2v.5h-.2ZM71.8,29H72v.4h-.2ZM70.6,46v-.4h-.2V46Zm1-15.2h.1v.3h-.1Zm-1.2,17v-.3h-.2v.3Zm-.2,1.8v-.3h-.1v.3Zm3.1-30.6v-.8l-.5-.2v.8Zm-.7,3.5h.4v.7h-.4Zm.9-5.4v-.7l-.4-.2V17Zm-1,7.2h.4v.7h-.4Zm1.1-9.1v-.2l-.2-.5h-.1v.6ZM72.4,26.3h.3v.6h-.3Zm-.1,1.8h.2v.4h-.2ZM72.2,30h.2v.4h-.2ZM71,47v-.4h-.2v.4Zm1-15.1h.1v.2H72ZM70.9,48.7v-.3h-.2v.3Zm.7-2.6v-.4h-.3v.4Zm-.2,1.8v-.4h-.2v.4Zm-.2,1.8v-.3h-.2v.3Zm.7-2.6v-.5h-.3V47Zm-.2,1.8v-.4h-.2v.4Zm.7-2.6v-.5h-.3v.5ZM72.4,48v-.5h-.3V48Zm-.2,1.7v-.4h-.2v.4Zm.7-2.6v-.6h-.3v.6Zm-.2,1.7v-.5h-.3v.5Zm.7-2.6v-.5h-.3v.5Zm-.2,1.7v-.6h-.3V48Zm-.2,1.7v-.4H73v.4Zm.7-2.5v-.6h-.3v.7ZM73.8,49v-.6h-.3V49Zm.6-.8v-.6H74v.6Zm.2-1.7v-.5h-.3v.5Zm-.3,3.4v-.5h-.3v.5Zm.6-.7v-.6h-.3V49Zm.2-1.7v-.6h-.3v.6Zm.5-.8V46h-.3v.5Zm-.3,3.3v-.5h-.3v.5Zm.2-1.6v-.6H75v.6Zm.5-.8v-.6h-.3v.6Zm-.1,1.7v-.6h-.3v.6Zm.7-2.5V46h-.3v.5Zm-.2,1.7v-.6h-.3v.6Zm-.1,1.6v-.5h-.3v.5Zm.7-2.4v-.6h-.3v.6Zm-.2,1.7v-.6h-.3v.6Zm2.6-5.2-1.7-4L76.8,46l1.7,3.8Zm-2,4.4v-.6h-.3v.6ZM77,49.8v-.5h-.3v.5Zm.5-.7v-.6h-.3v.6Zm.4.7v-.5h-.3v.5Z" transform="translate(-4 -2.7)"/><path class="cls-2" d="M79.6,46.4l2.8-28.5a39.6,39.6,0,0,1,9.3,11.7c.6,2.3,1,3.4,1.6,5.4v3a39.3,39.3,0,0,0-6-6.1v1a40.4,40.4,0,0,1,3.2,2.8c.7,1.9,1.1,2.8,1.9,4.5v3.3a59.4,59.4,0,0,0-5.7-2.7v1.3L91.4,44a22,22,0,0,0,2.2,3.2v3.3H81.8C80.9,49.1,80.5,48.2,79.6,46.4Zm11.3,1.2.2-3.2c-2.8-1.1-4.3-1.6-7.2-2.5l.5-5.6A49,49,0,0,1,90,39.5l.2-3.6a41.5,41.5,0,0,0-5.4-4.3l.5-5.3a39,39,0,0,1,6,6.5l.2-3.2A39.4,39.4,0,0,0,82.8,19L80.1,46C84.5,46.5,86.7,46.9,90.9,47.6Zm-10.4-.5v-.2h-.1v.2Zm.4.7v-.2h-.1v.2Zm.5-.6V47h-.2v.2Zm-.2,1.4v-.2h-.1v.2Zm.5-.6v-.2h-.1v.2Zm-.1,1.4v-.2h-.1v.2Zm.7-2v-.3h-.2v.3Zm-.2,1.3v-.2H82v.2ZM82,50v-.2h-.1V50Zm.7-1.9v-.3h-.2V48Zm-.2,1.3v-.2h-.1v.2Zm.7-1.9v-.3H83v.3Zm-.1,1.3v-.3h-.2v.3ZM82.9,50v-.2h-.2V50Zm.7-1.9v-.4h-.2v.4Zm-.1,1.3v-.3h-.2v.3Zm2.3-21.7v-.2h-.1v.2Zm.5,4.3v-.4l.3.2v.4l.4.3v-.5l-.4-.3v-.6l-.4-.3v-.6l-.4-.3v-.6l-.4-.3v-.6h-.1V29h.1v.4h-.1l-.2,1.9Zm-1.5,5.6v-.5h-.1v.5ZM86.1,42v-.6h-.4v-.6l-.4-.2v-.6l-.4-.2v-.6l-.4-.2v-.6h-.1V39h.1v.4h-.1l-.2,2Zm-2,5.5v-.4h-.3v.4ZM84,48.8v-.3h-.2v.4Zm-.1,1.2v-.3h-.2v.3ZM86,28.7v-.5l-.3-.3v.5Zm-.9,9.8v-.5h-.3v.5Zm.6-8.6.3.2v.4l-.3-.2Zm-.9,9.9H85v.5h-.3Zm.9-8.5h.1v.2h-.1ZM84.6,41h.1v.2h-.1Zm-.2,7.2v-.4h-.3v.4Zm.8-10.5v-.2h-.1v.2Zm-1,11.7v-.3h-.2v.3Zm2-19.9v-.5l-.3-.3v.5Zm-.9,9.6v-.5h-.3v.5Zm.5-8.5.3.2v.4l-.3-.2ZM85,40.4h.3V41H85Zm1.4-11.8v-.2h-.1v.2ZM85,47.7v-.4h-.3v.4Zm-.1,1.2v-.4h-.3v.4Zm.8-10.3v-.2h-.1v.2Zm-.9,11.5v-.3h-.2v.3Zm1.9-19.6v-.5l-.3-.3v.5ZM85.8,40v-.5h-.3v.5Zm-.4,1.2h.3v.4h-.3Zm1.4-11.6v-.2h-.1v.2ZM85.4,48.4v-.4h-.3v.5Zm-.1,1.2v-.4H85v.4Zm.9-11.4V38H86v.2ZM86,39.4v-.2h-.1v.2Zm.9-7.9V31l-.3-.2v.5Zm-.8,9.3v-.5h-.3v.5Zm1.1-11.4v-.2h-.1v.2Zm-.1,1.2v-.2H87v.2ZM85.8,47.8v-.4h-.3v.4ZM85.7,49v-.4h-.3V49Zm-.1,1.1v-.3h-.3v.3ZM86.5,39v-.2h-.1v.2Zm.6-6.8v-.4H87v.4Zm-.7,8V40h-.1v.2Zm-.1,1.2V41h-.1v.4Zm1.3-11.1v-.2h-.1v.2Zm-.1,1.2v-.2h-.1v.2Zm-1.2,17V48h-.3v.4Zm-.1,1.2v-.4h-.3v.4Zm.8-11v-.3h-.2v.3Zm-.1,1.1v-.2h-.1v.2ZM88,30.1v-.3l-.2-.2V30Zm-.1,1.1V31h-.1v.2ZM86.7,47.9v-.4h-.3v.4Zm-.1,1.2v-.4h-.3V49Zm-.1,1.1v-.4h-.3v.4Zm.8-10.7v-.3h-.2v.3Zm-.1,1.1v-.2h-.1v.2ZM88.3,31v-.3l-.2-.2v.3Zm-.1,1.1v-.2h-.1V32Zm-.4,7v-.3h-.2V39Zm-.7,9.4v-.4h-.3v.4ZM87,49.7v-.4h-.3v.4Zm.7-9.5V40h-.2v.2Zm1.1-9.3v-.3l-.2-.2v.3ZM88.7,32v-.2l-.2-.2v.2ZM87.6,48v-.4h-.3V48Zm.6-8.1v-.3h-.2v.3Zm-.7,9.2v-.4h-.3v.4Zm-.1,1.1v-.4h-.3v.4ZM88,41v-.2h-.2v.2Zm1-9.1v-.3l-.2-.2v.3Zm-.1,1v-.2l-.2-.2v.2Zm-.4,6.7v-.3h-.2v.3Zm-.6,9v-.4h-.3v.4Zm.6-8v-.3h-.2v.3Zm-.6,9.1v-.4h-.3v.4Zm1.6-18v-.3l-.2-.2v.3Zm-.1,1v-.3l-.2-.2v.3Zm-.4,7.6V40h-.3v.4Zm-.5,7.8v-.4h-.3v.4Zm-.1,1.1v-.4H88v.4Zm.5-7.8v-.3h-.2v.3Zm-.6,8.9v-.4H88v.4Zm1.5-17.6v-.3l-.2-.3v.4Zm-.1,1v-.3l-.2-.2v.3Zm-.3,6.4v-.4l-.3-.2v.4Zm-.1,1v-.3h-.2v.3Zm-.5,7.6v-.4h-.3v.4Zm-.1,1v-.4h-.3v.4Zm1.5-17.2v-.4l-.3-.3v.4Zm-.1,1v-.3l-.2-.2v.3Zm-.4,7.3v-.4l-.3-.2v.4Zm-.1,1v-.3h-.3v.3Zm-.4,6.4v-.4H89v.4Zm-.1,1v-.4h-.3v.4Zm-.1,1v-.4h-.3v.4Zm1.4-16.8v-.4l-.3-.3v.4Zm-.1,1v-.3l-.2-.2v.3Zm-.3,6.1v-.4l-.3-.2v.4Zm-.1,1v-.4l-.3-.2v.4Zm-.4,7.3v-.4h-.3v.4Zm-.1,1v-.4h-.3v.4Zm1.3-16.4V33l-.2-.3V33Zm-.1,1v-.4l-.3-.3V34Zm-.3,6.9v-.4l-.3-.2v.4Zm-.1,1v-.4l-.3-.2v.4Zm-.3,6.1V48h-.3v.4Zm-.1,1v-.4h-.3v.4Zm0,1v-.3h-.3v.4Zm2-10.2c-.6-1.3-.9-2-1.5-3.5l-.2,3.5c.6,1.2,1,1.8,1.6,2.9Zm-.9-5.9v-.4l-.2-.3v.4Zm-.1,1v-.4l-.3-.3v.4Zm-.3,6.8v-.4l-.3-.2v.4Zm-.3,6.9v-.4h-.3v.4Zm-.1,1v-.4h-.3v.4Zm1.1-15.7v-.3l-.2-.3v.4Zm0,.9v-.3l-.2-.3v.4Zm-.3,7.5v-.3l-.3-.2v.4ZM91,48.4v-.3h-.3v.3Zm0,.9V49h-.3v.4Zm0,.9v-.3h-.3v.3Zm2.2-15.6c-.5-1.6-.8-2.4-1.3-4.2l-.2,3.1L93,37.3Zm-1.2.3v-.3l-.2-.3v.3Zm0,.9v-.3l-.2-.3v.3Zm-.4,13v-.3h-.3v.3Zm0,.9v-.3H91v.3Zm1.8-2.5a21.3,21.3,0,0,1-1.8-2.5v3.3a15.7,15.7,0,0,0,1.9,2.1Zm-1-11.5v-.3l-.2-.3v.3Zm-.4,13.6v-.3h-.3v.3Zm0,.9V50h-.3v.3Zm.7-13.6v-.3l-.2-.3v.3Zm-.3,13.2v-.3h-.3v.3Zm.4.4V50h-.3v.3Z" transform="translate(-4 -2.7)"/><path class="cls-2" d="M7.2,65.9c0-5.8,0-8.8,0-14.6h6.5a3.8,3.8,0,0,1,3.4,2.3L18.7,57a11.8,11.8,0,0,1,.7,5.8,8.1,8.1,0,0,1-1.6,4.3l.4,1.2a13.7,13.7,0,0,1,.6,5.7c-.5,4.7-2.9,6.4-5.4,3.5a38.6,38.6,0,0,1-4.9-6.9C8,68.6,7.7,67.7,7.2,65.9Zm5.2,6.4c2.2,2.3,4.3.7,4.7-3.4a9.1,9.1,0,0,0-1.5-6.2,5.7,5.7,0,0,0,2-4.1c.4-3.9-1.3-6.6-3.8-6.7l-6.1-.3c-.1,5.8-.1,8.6-.2,14.4A37.8,37.8,0,0,0,12.4,72.3ZM10.1,54.6l3,.6c1,.2,1.6,1.4,1.5,2.9s-1,2.3-1.9,1.9L9.9,58.8Zm-.4,6.8,3,1.9a4,4,0,0,1,1.6,3.9c-.2,1.6-1.1,2.2-2.1,1.3L9.5,65.9Zm.9-5.4v-.3h-.2V56Zm0,2.6h.1l.5.2h.2V59h0v-.7h-.3v-.5H11v-.5h-.3v-.5h-.3v2Zm-.5,4.5v-.3l-.2-.2v.3Zm.8,3.7v-1l-.3-.2v-.5l-.3-.3v-.5l-.3-.2v-.5l-.3-.2v2.3ZM10.4,57h.3v.3h-.3Zm-.4,7,.2.2v.3l-.2-.2Zm.4-6h.1v.2h-.1ZM10,65h.1v.2H10Zm1-8.4v-.4h-.3v.4Zm-.5,7.2v-.4l-.2-.2v.4Zm.5-8.3v-.2h-.2v.2Zm-.5,7.2v-.3h-.2v.3Zm.2-5.2h.2V58h-.2Zm-.4,7.1.2.2v.3l-.2-.2Zm0,1.1h.1V66h-.1Zm1.1-8.5v-.4h-.3v.4Zm-.5,7.4v-.4l-.2-.2v.4Zm.6-8.5v-.3h-.2V56ZM11,58.1h.2v.3H11Zm-.2,5.3v-.3h-.2v.3Zm-.3,2,.2.2v.3l-.2-.2Zm1.1-7.6v-.4h-.3v.4Zm-.5,7.5v-.4l-.3-.2v.4Zm-.3.9.2.2v.3l-.2-.2Zm1-10.5v-.2h-.2v.2Zm-.5,7.5v-.3h-.2v.3Zm.5-6.5v-.3h-.2v.3Zm-.5,7.5V64H11v.3Zm.9-8V56h-.2v.3Zm-.1,1V57h-.2v.2Zm-.5,6.6v-.3h-.2v.3Zm-.1,1v-.2h-.2v.2Zm1.4-5.4c.7.3,1.3-.2,1.4-1.2L12,57.6v1.5ZM12.4,68c.8.7,1.5.3,1.7-.9l-2.6-1.9v1.9Zm-.5-4.4v-.3h-.2v.3Zm.5-6.7v-.3h-.2v.3Zm-.6,7.8v-.3h-.2v.3Zm.6-8.9v-.2h-.1v.2Zm.3,1.7v-.3h-.2v.3Zm-.6,6.9v-.3H12v.3Zm-.1,1v-.2H12v.2Zm.7-9v-.2h-.1v.2Zm-.3,8.8v-.3h-.2v.3Zm0-1.2v-.2h-.1V64Zm.7-8.1h0Zm-.1,1.1v-.2H13V57Zm-.4,8.8v-.2h-.2v.2Zm.7-8.2v-.2h-.1v.2Zm-.6,7.1v-.2h-.1v.2Zm.7-8.2h0Zm-.3,7.9v-.2h-.1v.2Zm-.1,1.1v-.2h-.1v.2Zm.7-8.4v-.2h-.1v.2ZM12.8,73.5v-.2h-.1v.2Zm.7-7.1v-.2h-.1v.2Zm.1-1.1V65h-.1v.2ZM13,74.4v-.2h-.1v.2Zm.8-8.4v-.2h-.1v.2Zm-.4,8.2v-.3h-.1v.3Zm-.1,1.1v-.2h-.1v.2Zm.4-.2v-.2h-.1v.2Zm-.1,1.1V76h-.1v.2Zm.3-2.1h0Zm.3.9v-.3l-.2-.2v.3ZM13.9,76v-.3h-.1V76Zm-.1,1.1v-.2h-.1V77Zm.7-2.4v-.4l-.2-.2h0v.4Zm-.1,1.1v-.3l-.2-.2v.3Zm-.1,1.1v-.3h-.1v.3Zm.7-2.4V74h-.3Zm-.1,1.1v-.4l-.2-.2v.4Zm-.1,1.1v-.3l-.2-.2v.3Zm-.1,1.1v0Zm.7-2.5v-.5l-.3-.3v.5ZM15,76.5v-.4l-.2-.2v.4Zm.3-2.3v-.4H15Zm-.4,3.4v-.4l-.2-.2v.4Zm2.9-11.2h-.1v-.5h.3v-.6h.1a7.9,7.9,0,0,0,.5-1.4h-.1v-.3h.1c.1-.3.1-.7.2-1.1a10.5,10.5,0,0,0-.6-5.3l-.6-1.3a11.8,11.8,0,0,1,0,2.5,9,9,0,0,1-.6,2.5h.1v.3h-.2l-.2.3v.4h-.1l-.2.4v.2h-.1l-.2.3h0l.2.3h.2v.2l.2.5h.1v.2l.2.6h.1v.7h.2v.6h0l.3.2h.1ZM16.4,77.9v-.6l.3.3v.5a2.5,2.5,0,0,0,.8-.8l-.2-.2v-.5l.3.2v.4l.3-.5h-.1v-.4h.2a7.3,7.3,0,0,0,.4-1.5h-.1v-.3h.1v-1a12.2,12.2,0,0,0-.5-5.2L17.4,67a11.4,11.4,0,0,1,0,2.1,10.7,10.7,0,0,1-.5,2.5h0V72h-.1a4.6,4.6,0,0,1-.9,1.5l.2.2v.5l-.3-.2v-.3l-.3.2.2.2v.6l-.3-.3v.6l.3.3v-.6l.3.3v.6l-.3-.3v.6l.3.3v-.6l.3.3v.6l-.3-.3v.6l.3.3v-.6l.3.3v.6l-.3-.3v.6Zm-1-1.6v-.5l-.3-.3V76Zm-.1,1.2V77l-.2-.2v.4Zm-.1.8L15,78h.2Zm1.4-15.5h.3v.5h-.3Zm-.9,14.5v-.5l-.3-.3v.5Zm-.2,1.1h0v-.4l-.2-.2v.4Zm1.4-14.8h.3v.5h-.3Zm.1-1.2h.3v.4H17ZM16,74.3l.3.2V75l-.3-.2ZM16,78.1v-.5l-.3-.3v.5Zm.2-5,.2.2v.4l-.2-.2Zm1-8.8h.3v.5h-.3Zm.1-1.2h.3v.4h-.3Zm.1-1.2h.2v.3h-.2Zm.2-1.2h.1V61h-.1Zm.1-1.2h.1v.2h-.1ZM16.3,75.2l.3.2v.5l-.3-.2Zm-.2,3.2h0Zm.4-4.4.3.2v.4l-.3-.2Zm.1-1.2h.2v.4h-.2Zm.9-7.7h.3v.6h-.3Zm.2-1.2h.3v.4h-.3Zm.2-1.2H18v.4h-.2Zm.1-1.2h.2v.3h-.2Zm.1-1.2h.1v.2h-.1ZM16.7,78.1l-.3-.3v.4Zm-.1-2.1.3.2v.5l-.3-.2Zm.1-1.2.2.2v.4l-.2-.2Zm.1-1.2h.2v.4l-.2-.2Zm.1-1.2h.2v.3H17Zm.1-1.2h.1v.2h-.1Zm.1-1.2h.1v.2h-.1Zm.6-5.4h.3v.4h-.3Zm.1-1.2h.2v.3H18Zm.2-1.2h.1v.3h-.1Zm.1-1.2h.1v.2h-.1ZM16.9,77l.3.2v.5l-.3-.2Zm.1-1.2.2.2v.5l-.2-.2Zm.1-1.2.2.2v.4l-.2-.2Zm.1-1.2h.2v.3h-.2Zm.1-1.2h.1v.3h-.1Zm.1-1.2h.1v.2h-.1Zm.8-6.6h.2v.3h-.2Zm.1-1.2h.2v.3h-.2Zm.2-1.2h.1V62h-.1ZM17.4,75.5h.2V76h-.2Zm.1-1.3h.2v.3h-.2Zm.1-1.2h.1v.2h-.1Zm.1-1.3H18v.2h-.1ZM19,62.5h.1v.2H19ZM17.9,75.1H18v.3h-.2Zm.1-1.3h.1v.3H18Zm.1-1.3h.1v.2h-.1Zm.3.9h.1v.2h-.1Z" transform="translate(-4 -2.7)"/><path class="cls-2" d="M19.9,81.5l2.8-30h6c1.9,0,3.3,1.6,4.2,4.3L34.4,60a23.2,23.2,0,0,1,1.3,9.6c-.2,3.6-1.2,6.9-2.8,8.7,1.2,6.6,1.9,10,3.3,16.9a39,39,0,0,1-4.9-1.8l-3.4-6.8-1.1-7.5-.4-.2-.9,11.4a38.6,38.6,0,0,1-3.6-2.5Zm3.3,1.7L24.2,73l2.3.9,1.7,12,3.9,1.6c-1-5.7-1.4-8.5-2.3-14,1.9-1.7,3.3-5.5,3.6-9.6.4-6.6-1.5-11.4-4.7-11.5L23,52.3l-2.7,29ZM25.5,58l2.8.4c1.4.2,2.2,2.6,2,5.6s-1.5,5.1-2.9,4.7l-2.7-.8Zm.4,2.3v-.6h-.2v.6Zm.9,7.4V66.3h-.2v-.6h.2v-.9h-.2v-.8h-.4V63h-.4v-.8h-.4v-.8h-.3V62h.2v.6h-.2l-.4,4.6Zm-2,7.2v-.8h-.3v.8Zm1.2,4.9-.4-.2v-.8l-.4-.2v-.8l-.4-.2v-.8l-.4-.2v-.8l-.3-.2-.7,8.6,1.6,5Zm-.6-16h.1v.3h-.1ZM24.3,76.5h.3v.6h-.3Zm-.1,1.8h.1v.3h-.1Zm2-17.1v-.6h-.3v.6Zm.1-1.8V59h-.2v.5Zm-.5,3.5H26v.6h-.3ZM25,75.8v-.6h-.3v.6Zm.7-11.1h.1V65h-.1ZM24.6,77.5h.3v.6h-.3Zm-.1,1.8h.1v.3h-.1Zm2-17.3v-.6h-.3V62Zm.1-1.7V60h-.2v.5Zm-.5,3.4h.3v.6H26Zm-.8,13v-.6h-.3v.6ZM26,65.6h.1V66H26ZM24.9,78.5h.3v.6h-.3Zm-.1,1.8H25v.3h-.1Zm2-17.3v-.7h-.3v.7Zm-.4,1.8h.3v.6h-.3Zm.7-5.2v-.5h-.2v.5Zm-.1,1.7v-.5h-.2v.5ZM25.6,77.9v-.7h-.3v.7Zm.7-11.3h.1v.3h-.1Zm-1.1,13h.3v.6h-.3Zm-.1,1.9h.1v.3h-.1ZM27,63.9v-.7h-.2v.7Zm.4-3.3v-.5h-.2v.5ZM26,78.9v-.6h-.3v.6Zm1.3-16.5v-.5h-.2v.5ZM25.5,80.6h.3v.6h-.3Zm-.1,1.8h.1v.3h-.1Zm2.2-20.9V61h-.2v.5Zm.1-1.8v-.3h-.2v.3Zm-.5,8.2c1.2.3,2.2-1.3,2.4-4l-2.4-.5-.4,4.4Zm.7-5.4V62h-.2v.5Zm.1-1.8v-.3H28v.3Zm.3.9v-.3h-.1v.3Zm.1-1.8v-.2h-.1v.2Zm.2,2.8v-.3h-.2v.3Zm.1-1.9v-.2h-.1v.2Zm.3.9v-.2h-.1v.2Zm.3,1v-.2h-.1v.2Zm3,16.7h-.1v-.7h-.4v-.9h-.4v-.8h-.4v-.7H31V75h-.4V74h-.4v.8h.1v.8h.3v.8h-.2l.3,1.9h.1v.4c.6,3.9,1,5.9,1.7,9.9l2.7,5.2C34.2,87.9,33.7,85,32.6,79.4Zm-1.5-5.7v-.6h-.1l-.2.3v.2Zm-.1,3h.3v.7h-.3Zm.7-3.7v-.7h-.1l-.3.5v.2Zm-.2,1.7v-.6h-.2v.6Zm-.1,2.9h.3v.6h-.3Zm2.2-1.3v-.8h.3v-.8h.2a16.3,16.3,0,0,0,.6-2.1h-.2v-.4h.2v.2a19.7,19.7,0,0,0,.4-2.9,22.9,22.9,0,0,0-1.7-10.3,23.1,23.1,0,0,1,.2,4.9,22.6,22.6,0,0,1-.3,2.3h.1v.3h-.1c-.1.8-.3,1.5-.5,2.2h.1v.6h-.3v1.1h-.2l-.2.6v.4H32l-.3.6v.2h.4v-.8h.4v.9h-.4v.8h.4v-.8h.4v.9h-.4v.8h.4v-.8h.4v.9h-.4v.9h.4v-.8h.4v.9h-.4v.8Zm-2.2,3h.2v.4h-.2Zm.7-5.3v-.7h-.3v.7Zm-.2,1.7v-.5h-.2v.5Zm-.1,2.8H32v.6h-.3Zm.6-3.6v-.7h-.3v.7Zm-.1,1.7v-.6h-.3v.6Zm-.5,3.4h.1v.3h-.1Zm1-9.5H33v.7h-.3Zm0,5.3v-.7h-.3v.7Zm-.2,1.7h0v-.6h-.3v.6Zm-.3,1.7h.2V80h-.2Zm.9-7.8h.3v.7H33ZM33,77v-.7h-.3v.7Zm.1-7.1h.3v.6h-.3Zm.1-1.7h.2v.5h-.2Zm-.7,12.1h.2v.4h-.2Zm.8-7.6h.3v.7h-.3Zm.1-1.8h.3v.6h-.3Zm.1-1.7h.2v.5h-.2Zm.1-1.8h.1v.3h-.1Zm.1-1.8H34v.2h-.1Zm-.2,8H34v.7h-.3Zm.1-1.7h.3v.6h-.3Zm.1-1.8h.2v.5H34Zm.1-1.8h.1v.3h-.1Zm.1-1.8h.1v.2h-.1Zm-.1,6.3h.3v.6h-.3Zm.1-1.8h.2v.5h-.2Zm.1-1.8h.1v.3h-.1Zm.1-1.8h.1v.2h-.1Zm.2,2.8H35v.3h-.1Zm.1-1.8H35v.2h-.1Z" transform="translate(-4 -2.7)"/><path class="cls-2" d="M36.6,90l1.8-38.4h3.7l2.2,5.8-1,39.8L39,96.4Zm3.9.2,1.3-37.6h-3L37.1,89.5ZM42.4,56v-.8h-.3V56Zm0,2v-.9h-.3V58Zm1.4,7h-.3v-.9h.3v-1h-.4v-1h-.4v-1h-.4v-1h-.4v-1H42v1h.3V61H42v1.1h.3v.8h-.3l-.9,28.4,2,4.9ZM42.4,53.9l-.2-.6v.6Zm-.6,10.2h.3v.7h-.3Zm0,2h.2v.6h-.2Zm0,2H42v.5h-.2Zm0,2h.2v.4h-.2Zm0,2h.1v.3h-.1ZM42.8,59v-.9h-.4V59Zm-.4,2h.4V62h-.4Zm.5-4.1v-.8h-.3V57Zm-.5,6.1h.3v.8h-.3Zm.5-8.2-.2-.6v.6Zm-.6,10.2h.3v.7h-.3Zm0,2h.2v.6h-.3Zm0,2h.2v.5h-.2Zm0,2h.2v.4h-.2Zm0,2h.1v.3h-.1Zm1-13.2v-.9h-.4V60Zm-.4,2h.4V63h-.4Zm.5-4.1v-.8h-.3V58Zm-.5,6.1H43v.8h-.3Zm.5-8.1-.3-.6v.6Zm-.6,10.2h.3v.7h-.3Zm0,2h.3v.6h-.3Zm0,2h.2v.5h-.2Zm0,2h.2v.4h-.2Zm0,2.1h.1v.3h-.1Zm1-13.2v-.9h-.4v.9Zm-.4,2h.4V64H43Zm0,2h.3V66H43Zm.5-6.1v-.8h-.3V59ZM43,67.1h.3v.7H43ZM43.6,57h0l-.2-.6h0V57ZM43,69.2h.3v.6h-.3Zm0,2.1h.2v.5h-.2Zm0,2h.2v.4h-.2Zm0,2H43v.3h-.1Zm1-13.2v-.9h-.4v.9Zm-.4,4h.3V67h-.3Zm.5-6.1v-.8h-.3V60Zm-.5,8.1h.3v.7h-.3ZM43.9,58h0l-.2-.6h0V58Zm-.6,12.2h.3v.6h-.3Zm0,2h.2v.5h-.2Zm0,2.1h.2v.4h-.2Zm0,2h.1v.3h-.1Z" transform="translate(-4 -2.7)"/><path class="cls-2" d="M46.1,91.7l.6-40.1h5.3c2.5,0,4.6,2.5,6.3,6.3l2,4.6a37.3,37.3,0,0,1,2.9,13.9c.5,11.4-2.8,20.6-8.4,21.2a39.3,39.3,0,0,1-6.1.2Zm6.1-.6c5.3-.2,8.6-8.7,8.1-19.7s-3.9-18.7-8.4-18.7H47L46.5,91A43.6,43.6,0,0,0,52.2,91.1ZM50,60.2h2c2.9,0,4.8,4.4,5,11.5s-1.7,12.1-4.9,12.2H50Zm.6,1.8v-.6h-.2V62Zm0,2.1v-.9h-.3v.9Zm1.4,18.7h.3V71h-.3v-.6h.3V69.1H52v-.9h.3v-.9H52v.8h-.4v-.9h.3v-.9h-.4v.9h-.4v-.9h.3v-.9h-.4v.8h-.4v-.9h.4v-.9h-.4v.8h-.3v1.2h.2v.6h-.2v16ZM51.1,63v-.7h-.3V63Zm-.2,4.3h.3V68h-.3Zm.1,2.2H51v.3h-.1Zm.5-5.5v-.7h-.3V64Zm0-2v-.6h-.2V62Zm-.2,6.3h.3V69h-.3Zm.1,2.2h.1v.3h-.1Zm.5-7.6v-.6h-.2v.6Zm0,2.1v-.6h-.3V65Zm-.2,4.3h.3V70h-.3Zm.1,2.2h.1v.3h-.1Zm.5-5.5v-.7H52V66Zm0-2.1v-.6H52v.6Zm0-1.9v-.6H52V62Zm-.1,10.5h.1v.3h-.1Zm.5-9.6v-.6h-.2v.6Zm0,2.1v-.6h-.2V65ZM53,92.8v-.3h-.1v.3Zm3.6-21c0-1.7,0-3.7-.5-4.6a2.4,2.4,0,0,0-2.2-.8H52.7l.2,16.4C55.4,82,56.8,77.8,56.6,71.8Zm-3.5-7.9v-.6h-.2v.6Zm0-2v-.4h-.2v.4Zm.4,31.9v-.3h-.1v.3ZM53.5,65v-.6h-.2V65Zm-.1-2.2v-.4h-.2v.4Zm.5,30v-.3h-.1v.3Zm0,2v-.3h-.1v.3Zm0-31v-.4h-.2v.4Zm.5,28v-.2h0Zm0,2v-.3h-.1v.3Zm0,2v-.3h-.1v.3Zm-.1-32.9v-.3h-.1v.3Zm.1,2.1v-.4h-.2v.4Zm.5,27.9v-.4h-.2v.4Zm0,2v-.3h-.2v.3Zm0,1.9h0Zm.4-4.8v-.5H55v.5Zm0,2v-.4h-.2v.4Zm-.6-30v-.3h-.1v.3Zm.6,32v-.3h-.2v.3Zm.4-4.9v-.2l-.2.2Zm0,1.9v-.5h-.2v.5Zm0,2v-.4h-.2v.4Zm0,1.7h0Zm-.6-31.6v-.3H55v.3Zm1,26.9v-.6h-.2v.6Zm0,2v-.5H56v.5Zm0,2v-.4H56v.4Zm.4-4.9V90h-.3v.6Zm0,2v-.6h-.3v.6Zm0,2v-.5h-.2v.5Zm.4-4.9v-.5l-.3.4v.2Zm0,2V91h-.3v.6Zm0,1.9V93h-.3v.6Zm0,2V95h-.2v.5Zm.4-4.9v-.7h-.3v.7Zm0,2v-.6h-.3v.6Zm0,2v-.6h-.2v.6Zm-.1-5.8v0Zm.5.9v-.8h-.4v.8Zm0,1.9v-.7h-.3v.7Zm0,1.9v-.6h-.3v.6ZM58,95h-.3v.3Zm.3-6.4v-.9H58v.9Zm0,1.9v-.8H58v.8Zm0,1.9v-.7h-.3v.7Zm0,1.9v-.6h-.3v.6Zm.3-6.8v-.9h-.3v1Zm0,1.9v-.9h-.4v.9Zm0,1.9v-.8h-.3v.8Zm0,1.9v-.7h-.3v.7ZM61,90.1v-.9h.3v-1h.2l.2-.7V87H62c.2-.7.3-1.5.4-2.3h-.1v-.6h.2c.1-.8.2-1.6.2-2.5h-.1v-.4h.2c.1-1.5.1-3.1,0-4.7a35.5,35.5,0,0,0-3.3-14.4,48.2,48.2,0,0,1,1.3,9.3c.1,1.5.1,3,0,4.4h.1v.4h-.1c0,.9-.1,1.7-.2,2.5h0v.5h-.1c-.1.8-.2,1.6-.4,2.4h.2v.7H60v-.4l-.2.7h.1v.8h-.3v1h-.3l-.2.4v.6h-.2l-.2.4v.6h.4v1h.4v1h-.4v.9h.4v-.9h.4v1h.4v1Zm-1.8-1.7v-.9h-.4v.9Zm.1,1.9v-.9h-.4v.9Zm0,1.9v-.8H59v.8Zm-.1,1.2h-.2v.2Zm-.1-8h.4v.9h-.4Zm.6,5.7v-.9h-.4v.9Zm0,1.4v-.3h-.3v.7Zm-.2-6.2h.4v.9h-.4Zm.6,3.8v-.9h-.4v.9Zm-.6-5.7H60v.8h-.4Zm.5,7.7.2-.3v-.6h-.4v.9Zm0-4.8h.4v.9h-.4Zm.5,3.8v-.9h-.4v.9Zm-.5-5.7h.4v.9h-.4Zm0-1.9h.3v.8H60Zm.6,4.8H61v.9h-.4Zm-.1-1.9h.4v.9h-.4Zm-.1-1.9h.3v.8h-.3Zm0-1.9h.3v.7h-.3Zm-.1-1.9h.3v.6h-.3Zm.6,6.7h.4V88H61Zm-.1-1.9h.3v.8H61Zm-.1-1.9h.3v.7h-.3Zm-.1-1.9h.3v.6h-.3Zm-.1-1.9H61v.5h-.2Zm-.1-1.9h.2v.5h-.2Zm.7,8.6h.3v.8h-.3Zm-.1-1.9h.3V85h-.3Zm-.1-1.9h.3V83h-.3Zm-.1-1.9h.2V81h-.2Zm-.1-1.9h.2V79h-.2Zm-.1-1.9h.2V77h-.2Zm-.1-1.9h.1V75h-.1ZM61,72.8h.1v.2H61Zm.8,12.4h.3v.7h-.3Zm-.1-1.9H62v.6h-.3Zm-.1-1.9h.2v.5h-.2Zm-.1-1.9h.2v.5h-.2Zm-.1-1.9h.2v.4h-.2Zm-.1-1.9h.1V76h-.1Zm-.1-1.9h.1V74h-.1Zm.7,8.5h.2v.5h-.2Zm-.1-1.9h.2v.5h-.2ZM62,78.5h.2v.4H62ZM62,76.6h.1v.3H62Zm-.1-1.9H62v.2h-.1Zm.6,4.7h.2v.4h-.2Zm-.1-1.9h.1v.3h-.1Zm-.1-1.9h.1v.2h-.1Z" transform="translate(-4 -2.7)"/><path class="cls-2" d="M69.2,87.6l-2.2-3.3c-1.9-3.1-3.2-7.8-3.5-13.8C63,59.2,66,50.9,70.8,50.9a8.4,8.4,0,0,1,4.8,1.8L78.3,57l.7,7.2c-1.1-1-3.2-2-4.7-1.7s-4.8,5-4.3,11c.1,2,.4,4,.9,4.6a2.6,2.6,0,0,0,2.5.1A4.9,4.9,0,0,0,75,77.1v-.6h-.4l-2.6-3.9-.6-7.1,6.2-1.5,2.7,3.5,1.4,15.1a18.4,18.4,0,0,1-5.5,6.9C73.6,91.3,71.2,90.6,69.2,87.6ZM78.7,80,77.3,65l-5.5,1.5.4,5.6,2.6-.9.6,6.4a5.3,5.3,0,0,1-2,1.5c-3.2,1.4-5.8-2.4-6.2-9.1s1.5-11.5,4.7-11.8A5.7,5.7,0,0,1,76,59.4l-.5-6a7.8,7.8,0,0,0-4.5-1.6c-4.6.1-7.5,7.9-7,18.6S68.7,88,73.5,85.6A14,14,0,0,0,78.7,80Zm-9.2-6.3c0-.2,0-.4,0-.6h-.1v-.2h.1a24.1,24.1,0,0,1,.2-4.1h-.2v-.5h.2v-.3h0v-.7h.2v-.9h.2l.2-.5v-.5h.2v-.9h-.4v-.8h-.4v-.9h-.4v-.9h-.4v-.4l-.2.5h.3v.8h-.4v-.6l-.3.8h.3v.7h-.3v-.6L68,64h.2v.6h-.3v.3h0v.5h-.1a23,23,0,0,0-.1,4.1h.1v.3h-.1c.2,3.5,1.1,6.2,2.5,7.7A19.1,19.1,0,0,1,69.5,73.7Zm-1.8-6.9h.2v.4h-.2Zm.1,1.8H68v.3h-.2Zm.1,1.8h.1v.3H68Zm0-4.7h.2v.5h-.2Zm.1,1.8h.2V68h-.2Zm.1,1.8h.2v.3h-.2Zm.1,1.8h.1v.3h-.1Zm-.1-6.5h.3v.6h-.3Zm.1,1.8h.2v.5h-.2Zm.1,1.8h.2v.4h-.2Zm.1,1.8h.1v.3h-.1Zm.1,1.8h.1v.2H69Zm-.3-8.2H69v.7h-.3Zm.1,1.8h.3v.6h-.3Zm.1,1.8h.2v.5H69Zm.1,1.8h.2v.4h-.2Zm.2,1.8h.2v.3h-.2ZM69,62.8h.4v.8H69Zm.2,1.8h.3v.7h-.3Zm.2,1.8h.3V67h-.3Zm.4-4.7V61h-.3v.8Zm-.2,1.9h.4v.8h-.4Zm.2,1.8h.3v.7h-.3Zm.5-2.8v-.8h-.3v.8Zm-.2,1.8h.4v.8h-.4Zm.1-3.6v-.7h-.1v.7Zm.6,2.6v-.7h-.3v.8Zm-.2-1.8V61H70v.7Zm-.2-1.8h0l-.2.2Zm.8,4.3v-.7h-.3v.7Zm-.2-1.7v-.6h-.3v.6Zm-.2-1.8v-.5h-.2v.5Zm.6,2.5v-.6h-.3v.6Zm-.2-1.7v-.5h-.2v.6ZM71,59.7v-.4h-.2v.4Zm.7,3.7h-.2v.2Zm0-1.1v-.5h-.3v.5Zm-.2-1.8v-.4h-.2v.4Zm.5,2.5H72v-.4h-.2V63Zm0-1.7v-.4h-.2v.4Zm-.2-1.7v-.3h-.2v.3Zm.6,2.5v-.4h-.2v.4Zm-.2-1.7V60H72v.3Zm2.4,26v-.2h-.1v.2Zm-2-25.3v-.3h-.1v.3Zm-.2-1.7v-.2h-.1v.2ZM75.1,87v-.2h-.1V87Zm-2-25.1v-.3h-.2v.3Zm-.2-1.7v-.2h-.1v.2ZM75.4,86v-.3h-.1V86Zm.1,1.6v-.2h-.1v.2ZM73.4,60.9v-.2h-.1v.2ZM75.7,85h0Zm.1,1.6v-.3h-.1v.3Zm.1,1.6v-.2h-.1v.2ZM73.8,61.7v-.2h-.1v.2Zm2.4,23.9v-.3H76v.3Zm.1,1.6v-.3h-.1v.3Zm.1,1.5h0Zm.1-4v-.4h-.2v.3Zm.1,1.5v-.3h-.2v.3Zm.1,1.6v-.2h-.1v.3Zm.2-2.5v-.4h-.2v.4Zm.1,1.5v-.3h-.2v.3Zm.1,1.3h0Zm.1-3.9v-.4H77v.4Zm.1,1.5v-.4h-.2v.4Zm.1,1.5v-.3h-.2v.3Zm.1-4v-.3l-.2.3v.2Zm.1,1.5v-.4h-.2v.4Zm.1,1.5v-.4h-.2v.4Zm.2-2.5v-.5l-.2.2v.5Zm.1,1.5v-.4h-.2v.4Zm.1,1.5v-.4h-.2v.4Zm.1-4v-.5l-.3.2v.6Zm.1,1.5v-.5l-.2.2v.5Zm.1,1.5v-.4h-.2v.4Zm.1-4v-.5l-.3.4v.2Zm.1,1.5v-.5l-.3.2v.5Zm.1,1.5v-.5l-.2.2v.5ZM79,86v-.3l-.2.2v.4ZM77.9,57.3,75.9,54l.5,5.9,2,3.1Zm1.2,24.8v-.6l-.3.2v.6Zm.1,1.5v-.5l-.3.2v.5Zm.1,1.5v-.5l-.2.2v.5ZM79,80.7v-.2l-.2.3Zm.4.5v-.6l-.3.2v.6Zm.1,1.5v-.6l-.3.2v.6Zm.1,1.5v-.5l-.3.2v.5Zm.1,1-.2.2h0Zm.2-17h-.3v-.6h-.4v-.6h-.4v-.7h-.3v-.7h-.2l1.3,14.3,2.1,2.3Zm-2-1.4h.3v.5H78Zm.2,1.6h.2v.5h-.2Zm.2,1.6h.2v.4h-.2Zm.2,1.6h.1v.3h-.1Zm.2,1.6h.1v.2h-.1Zm1.3,8.7V81l-.3.2v.6Zm.1,1.4v-.6l-.3.2v.6Zm.1,1.4V84l-.3.2v.5ZM78.4,67.4h.3v.5h-.3Zm.2,1.6h.2v.4h-.2Zm.2,1.5h.2v.4h-.2Zm.2,1.5H79v.3h-.1Zm.2,1.5h.1v.2H79Zm1.2,8.6v-.6l-.3.2v.6Zm.1,1.4V83l-.3.2v.6ZM78.8,68h.3v.5h-.3Zm.2,1.5h.2v.5H79Zm.2,1.5h.2v.4h-.2Zm.2,1.5h.2v.3h-.2Zm.2,1.5h.1v.2h-.1Zm1.2,8.5V82l-.3.2v.6Zm.1.9h0l-.3.2V84ZM79.2,68.6h.3V69h-.3Zm.2,1.5h.2v.5h-.2Zm.2,1.5h.2v.4h-.2Zm.2,1.5h.1v.3h-.1Zm.2,1.5H80v.2h-.1ZM81,83.1v-.7l-.3.2v.6ZM79.7,69.2H80v.5h-.3Zm.2,1.5h.2V71h-.2Zm.2,1.5h.2v.4h-.2Zm.2,1.5h.1v.3h-.1Zm.2,1.5h.1v.2h-.1Z" transform="translate(-4 -2.7)"/><path class="cls-2" d="M83.3,76.5l-2.6-25,10-.2,2.2,2.1v2.8l-6,2.2v.9L90.1,58a12.3,12.3,0,0,0,2,1.4v3a39.5,39.5,0,0,1-4.6,3.8v1.2a38.5,38.5,0,0,0,3.8-3.4,3.6,3.6,0,0,0,1.7.3v3.1a37.7,37.7,0,0,1-7.6,10.7Zm8.2-8.8V64.7a38.7,38.7,0,0,1-5.6,4.9l-.5-5a46.9,46.9,0,0,0,4.8-2.8l-.2-3.2-5,2-.5-4.7,6.2-1.2V51.7l-9.3.4,2.4,23.7A37.4,37.4,0,0,0,91.5,67.7Zm-7.4,8.7v-.2H84v.2Zm.4.3v-.2h-.1v.2Zm.3-.9v-.2h-.1v.2Zm.1,1.2v-.2h-.1v.2Zm.3-.9v-.2h-.1v.2Zm.1,1.2v-.2h-.1v.2Zm.2-2.1v-.3h-.1v.3Zm.1,1.2v-.2h-.1v.2Zm.1,1.2v-.2h-.1v.2Zm.2-2.1v-.3h-.1v.3Zm.1,1.2v-.2h-.1v.2Zm.2-2v-.3l-.2.2v.3Zm.1,1.1v-.3h-.1v.3Zm.1,1.1v-.2h-.1V77Zm.2-2v-.3l-.2.2V75Zm.1,1.1v-.3h-.1V76ZM84.9,56.6v-.2h-.1v.2Zm1.1,3v-.4h.2v.4h.4v-.4h-.3v-.5h-.4v-.5h-.4v-.5h-.4v-.6h-.1v.6h.1v.4H85l.2,1.7Zm-.3,5.8V65h-.1v.4Zm1.7,2.3v-.5l-.3.2v-.5l-.3.2v-.5l-.3.2v-.5l-.3.2v-.6h-.1v.6h.1V67h-.1l.2,1.8Zm-.6,6.2v-.3l-.2.2v.3Zm.1,1.2v-.3l-.2.2v.3Zm.1,1.1v0ZM85.4,57.1v-.4H85v.4Zm.8,8.7v-.4l-.3.2v.4Zm-.9-7.4h.2v.4h-.2Zm.8,8.7.2-.2v.4l-.2.2Zm-.7-7.6h.1v.2h-.1Zm.8,8.7h.1v.2h-.1Zm1,6v-.4L87,74v.4Zm-1-9.2v-.2h-.1V65Zm1.1,10.3V75l-.2.2v.3ZM85.8,57.5v-.4h-.3v.4Zm.8,8.5v-.4l-.3.2v.4Zm-.9-7.3h.2v.4h-.2Zm.8,8.6.2-.2v.4l-.2.2Zm-.7-10.8v-.2h-.1v.2Zm1.8,16.7v-.4l-.2.2v.4Zm.1,1.1V74l-.2.2v.3Zm-.9-9.1h-.1v.2Zm1,10.1v-.3l-.2.2v.3ZM86.2,57.9v-.4h-.3V58Zm.8,8.4v-.4l-.3.2v.4Zm-.1,1.3.2-.2v.4l-.2.2ZM86.2,57h0Zm1.7,16.5v-.4l-.2.3v.4Zm.1,1.1v-.4l-.2.2v.4Zm-1-10v-.2h-.1v.2Zm.1,1.1h0Zm-.5-7.3V58h-.3v.4Zm.7,8.3v-.4l-.2.2v.4Zm-.8-10.3v-.2h-.1v.2Zm.1,1.1h0Zm1.6,15.1v-.4l-.2.2v.4Zm.1,1.1v-.4l-.2.3v.4Zm.1,1v-.3l-.2.2v.3Zm-1-9.8v-.2h-.1V65Zm-.6-6v-.4h-.1v.4Zm.7,7.1h0Zm.1,1.1v-.4h-.1v.4Zm-.6-10.2v-.2h-.1v.2Zm.1,1.1h0Zm1.5,14.9v-.4l-.2.3v.4Zm.1,1v-.4l-.2.3v.4Zm-.9-9.7v-.2h-.1v.2Zm.1,1V65h-.1v.2Zm-.5-8.9V56h-.2v.2Zm.1,1v-.2h-.1v.2Zm1.4,14.6v-.4l-.2.3v.4Zm.1,1v-.4l-.2.3v.4Zm.1,1v-.3l-.2.3v.3ZM88,64.5v-.2h-.1v.2Zm.1,1v-.2H88v.2Zm-.5-8.8v-.2h-.2v.2Zm.1,1v-.2h-.1v.2Zm.6,6.1v-.3h-.2v.3Zm.7,8.4v-.4l-.2.3v.4Zm.1,1v-.4l-.2.3v.4Zm-.8-8.4v-.2h-.1v.2ZM88,56.1v-.3h-.2v.3Zm.1,1v-.2h-.2v.2Zm1.3,14.1v-.4l-.2.3v.4ZM88.7,64v-.3h-.2v.3Zm.7,8.2v-.4l-.2.3v.4Zm.1,1v-.4l-.2.3v.4ZM88.8,65v-.2h-.1v.2Zm-.4-8.5v-.3h-.2v.3Zm.1,1v-.2h-.2v.2Zm.6,5.8V63h-.2v.3Zm.7,8.1V71l-.2.3v.4Zm-.6-7.1V64h-.2v.3Zm.7,8V72l-.2.3v.4Zm-1-16.4v-.3h-.2V56Zm.1,1v-.3h-.2V57Zm.6,6.7v-.3h-.2v.3Zm.5,6.9v-.4l-.2.3v.4Zm.1,1v-.4l-.2.3v.4Zm-.6-7v-.3h-.2v.3Zm.6,7.9v-.3l-.2.3v.3Zm-.9-16.1V56h-.2v.3Zm0,.9V57H89v.3Zm.5,5.6v-.3l-.2.2v.4Zm0,.9v-.3l-.2.2V64Zm.5,6.8v-.3l-.2.3v.4Zm.1.9v-.3l-.2.3v.4Zm-.8-15.8v-.3h-.3v.3Zm0,.9v-.3h-.2v.3Zm.5,6.4v-.3l-.2.2v.3Zm0,.9v-.3l-.2.2v.3Zm.4,5.8v-.3l-.2.3v.3Zm.1.9v-.3l-.2.3V71Zm.1.9v-.3l-.2.3v.3Zm-.8-15.5v-.3h-.3v.3Zm0,.9v-.3h-.2v.3Zm.4,5.4v-.3l-.2.2v.3Zm.1.9V63l-.2.2v.3Zm.4,6.5v-.3l-.2.3v.3Zm.1.9v-.3l-.2.3v.3Zm-.7-15.2v-.3h-.3v.3Zm.1.9v-.3H90v.3Zm.4,6.2v-.3l-.2.2v.3Zm0,.9v-.3l-.2.2v.3Zm.3,5.5v-.3l-.2.3v.3Zm0,.9v-.3l-.2.3v.3Zm.1.9v-.3l-.2.3v.3Zm.7-11-1.6-1.1.2,3.2,1.5.6Zm-1.3-3.9v-.3h-.3V56Zm0,.9v-.3h-.3v.3Zm.4,6v-.3l-.2.2V63Zm.3,6.3v-.3l-.2.3v.3Zm0,.9v-.3l-.2.3v.3Zm-.5-14.6v-.3h-.3v.3Zm0,.9v-.3h-.3v.3Zm.4,6.7v-.3l-.2.2v.3Zm.2,5.3V68l-.2.3v.3Zm0,.8v-.3l-.2.3v.3Zm0,.8v-.3l-.2.3v.3Zm.9-16.4L90.9,52v2.9L92.6,56Zm-1.3,2.1v-.3H91v.3Zm0,.8v-.3H91v.3Zm.6,11.8V68l-.2.3v.3Zm0,.8v-.3l-.2.3v.3Zm1-4.2-1.3-.2v3H93ZM91.6,56v-.3h-.3v.3Zm.5,12.3V68l-.2.3v.3Zm0,.8v-.3l-.2.3v.3ZM92,56.3V56h-.3v.3Zm.4,12V68l-.2.3v.3Zm.3-.1V68l-.2.3v.3Z" transform="translate(-4 -2.7)"/></svg>